<?xml version="1.0" standalone="no"?>
<!DOCTYPE svg PUBLIC "-//W3C//DTD SVG 1.1//EN" "http://www.w3.org/Graphics/SVG/1.1/DTD/svg11.dtd" >
<svg>
<metadata>
Created by FontForge 20090914 at Fri Sep 18 16:18:59 2015
 By www-data
Copyright (c) 1991 VNI All Rights Reserved.
</metadata>
<defs>
<font id="VNI-Revue-Bold" horiz-adv-x="334" >
  <font-face 
    font-family="VNI-Revue"
    font-weight="700"
    font-stretch="normal"
    units-per-em="1000"
    panose-1="0 0 0 0 0 0 0 0 0 0"
    ascent="800"
    descent="-200"
    x-height="604"
    cap-height="818"
    bbox="-597.998 -326 1136 1286"
    underline-thickness="158"
    underline-position="-25"
    unicode-range="U+0020-U+2122"
  />
<missing-glyph horiz-adv-x="764" 
d="M47 0v764h670v-764h-670zM670 47v670h-576v-670h576z" />
    <glyph glyph-name=".notdef" horiz-adv-x="764" 
d="M47 0v764h670v-764h-670zM670 47v670h-576v-670h576z" />
    <glyph glyph-name="space" unicode=" " 
 />
    <glyph glyph-name="exclam" unicode="!" horiz-adv-x="398" 
d="M306 818v-584h-212v584h212zM306 184v-184h-212v184h212z" />
    <glyph glyph-name="quotedbl" unicode="&#x22;" horiz-adv-x="666" 
d="M334 818l-82 -278h-186l82 278h186zM596 818l-82 -278h-188l82 278h188z" />
    <glyph glyph-name="numbersign" unicode="#" 
 />
    <glyph glyph-name="dollar" unicode="$" horiz-adv-x="614" 
d="M316 550l149.999 -166.001c33.333 -37.333 56.333 -66.666 69 -87.999c20.667 -34.667 31 -70 31 -106c0 -44 -11.667 -81.667 -35 -113c-31.333 -42.667 -79.666 -67 -144.999 -73v-102h-178v98h-110l-50 184h194l14 -2c16 0 30.667 2.33301 44 7s20 12.334 20 23.001
c0 10 -3.66699 20 -11 30l-23 26l-146 164c-41.333 48 -68.333 85.667 -81 113s-19 55 -19 83c0 41.333 11 77.666 33 108.999c29.333 41.333 74.333 67 135 77v86h178v-82h104l50 -184h-196c-21.333 0 -37 -2.5 -47 -7.5s-15 -11.833 -15 -20.5c0 -10 3.66699 -20 11 -30z
" />
    <glyph glyph-name="percent" unicode="%" horiz-adv-x="1164" 
d="M910 -18c-70.667 0 -128.001 35.999 -172.001 107.999c-37.333 61.333 -56 130 -56 206c0 34 5.66699 64.5 17 91.5s30.333 49.167 57 66.5c19.333 14 41.333 23.167 66 27.5s54 6.5 88 6.5c32.667 0 61.334 -2.16699 86.001 -6.5s47.334 -13.5 68.001 -27.5
c25.333 -16.667 43.666 -38.667 54.999 -66s17 -58 17 -92c0 -75.333 -18.333 -143.666 -55 -204.999c-43.333 -72.667 -100.333 -109 -171 -109zM909.999 107.999c26 0 46.667 25.332 62 75.999c12 38.667 18 74 18 106c0 54.667 -26.667 82 -80 82
c-54.667 0 -82 -27.333 -82 -82c0 -33.333 6 -68.666 18 -105.999c16 -50.667 37.333 -76 64 -76zM767.999 817.998l-276 -818h-116l276 818h116zM251.999 329.998c-70.667 0 -127.999 35.667 -171.999 107c-37.333 60.667 -56 129 -56 205c0 34.667 5.66699 65.5 17 92.5
s30.333 49.5 57 67.5c19.333 13.333 42 22.333 68 27s54.667 7 86 7c33.333 0 61.833 -2.16699 85.5 -6.5s46.5 -13.5 68.5 -27.5c25.333 -18 43.666 -40.5 54.999 -67.5s17 -57.833 17 -92.5c0 -74.667 -18.333 -142.667 -55 -204c-43.333 -72 -100.333 -108 -171 -108z
M252 455.998c26 0 46.667 25.332 62 75.999c12 38.667 18 74 18 106c0 54.667 -26.667 82 -80 82c-54.667 0 -82 -27.333 -82 -82c0 -33.333 6 -68.666 18 -105.999c16 -50.667 37.333 -76 64 -76z" />
    <glyph glyph-name="ampersand" unicode="&#x26;" horiz-adv-x="794" 
d="M752 534l-0.000976562 -184.002h-48v-350h-388c-102 0 -176 21.667 -222 65c-36 34 -54 79 -54 135c0 49.333 13.667 95.666 41 138.999c24 38.667 58.333 73.667 103 105c-35.333 30.667 -60.666 57.334 -75.999 80.001c-21.333 32 -32 66.667 -32 104
c0 54 15.667 97 47 129c40 40.667 103.667 61 191 61h272l50 -184h-220c-36 0 -56.667 -0.333008 -62 -1c-25.333 -3.33301 -38 -15.666 -38 -36.999c0 -18.667 13.333 -40.334 40 -65.001c14 -13.333 35.333 -29.666 64 -48.999l66 -52
c-45.333 -20.667 -87.333 -46.667 -126 -78c-53.333 -43.333 -80 -82.666 -80 -117.999c0 -22 10.667 -36.667 32 -44c12 -4 32.667 -6 62 -6h122v350h256z" />
    <glyph glyph-name="quotesingle" unicode="'" 
d="M300 818l-82 -278h-188l82 278h188z" />
    <glyph glyph-name="parenleft" unicode="(" horiz-adv-x="526" 
d="M476 -150l-181.999 -85.999c-108 170 -162 353.333 -162 550c0 95.333 12.667 184.166 38 266.499s64.666 167.5 117.999 255.5l182 -88c-39.333 -74.667 -69 -146 -89 -214c-23.333 -78 -35 -153.333 -35 -226c0 -74.667 12.333 -153 37 -235
c21.333 -70 52.333 -144.333 93 -223z" />
    <glyph glyph-name="parenright" unicode=")" horiz-adv-x="526" 
d="M226 -236l-179.998 85.999c40 76.667 70.667 151 92 223c24 80.667 36 159 36 235c0 72 -11.667 147 -35 225c-20.667 69.333 -50.334 141 -89.001 215l184 88c51.333 -86 90.166 -171.5 116.499 -256.5s39.5 -173.5 39.5 -265.5
c0 -99.333 -13.667 -194.166 -41 -284.499s-68.333 -178.833 -123 -265.5z" />
    <glyph glyph-name="asterisk" unicode="*" horiz-adv-x="486" 
d="M304 818l-14 -132l114 56l36 -118l-114 -24l78 -86l-104 -76l-60 98l-60 -98l-104 76l78 86l-114 24l36 118l114 -56l-14 132h128z" />
    <glyph glyph-name="plus" unicode="+" 
 />
    <glyph glyph-name="comma" unicode="," horiz-adv-x="308" 
d="M262 182l-82 -278h-188l82 278h188z" />
    <glyph glyph-name="hyphen" unicode="-" 
d="M322 430v-158h-324v158h324z" />
    <glyph glyph-name="period" unicode="." horiz-adv-x="308" 
d="M240 184v-184h-180v184h180z" />
    <glyph glyph-name="slash" unicode="/" horiz-adv-x="526" 
d="M508 818l-350 -1026h-166l350 1026h166z" />
    <glyph glyph-name="zero" unicode="0" horiz-adv-x="794" 
d="M390 -18c-112.667 0 -203.333 62.001 -272 186.001c-57.333 104 -86 217.333 -86 340c0 97.333 21.333 172 64 224c57.333 69.333 155.333 104 294 104s237 -34.667 295 -104c43.333 -52 65 -126.667 65 -224c0 -74.667 -12.667 -150.334 -38 -227.001
c-28.667 -86 -68 -155 -118 -207c-59.333 -61.333 -127.333 -92 -204 -92zM390.001 184.001c38.667 0 72 38.333 100 115c24 66 36 130.333 36 193c0 50.667 -10 88 -30 112c-22 26.667 -57.333 40 -106 40c-48 0 -82.667 -12.833 -104 -38.5s-32 -63.5 -32 -113.5
c0 -63.333 11.667 -127.333 35 -192c28 -77.333 61.667 -116 101 -116z" />
    <glyph glyph-name="one" unicode="1" horiz-adv-x="462" 
d="M40 818h298v-818h-214v634h-134z" />
    <glyph glyph-name="two" unicode="2" horiz-adv-x="614" 
d="M72 818h255.999c70 0 122 -18.333 156 -55c26.667 -28.667 40 -65 40 -109c0 -30.667 -6.33301 -62 -19 -94c-3.33301 -8 -17.666 -36.667 -42.999 -86l-148 -290h232l-50 -184h-516l278 538l15.5 32.5c5.66699 11.667 8.5 21.5 8.5 29.5c0 14 -5.5 23.167 -16.5 27.5
s-25.833 6.5 -44.5 6.5h-19h-180z" />
    <glyph glyph-name="three" unicode="3" horiz-adv-x="614" 
d="M68 818l233.999 -0.000976562c87.333 0 151.333 -20.333 192 -61c32 -32 48 -75 48 -129c0 -36 -11 -70.667 -33 -104c-16 -24.667 -43 -54 -81 -88c44.667 -37.333 77 -71 97 -101c27.333 -40.667 41 -85 41 -133c0 -51.333 -15.667 -95 -47 -131
c-41.333 -47.333 -102.333 -71 -183 -71h-282l-50 184h210l22 -2c24.667 0 43.667 2.66699 57 8c20.667 8 31 22 31 42c0 28 -25.667 64.333 -77 109c-21.333 18.667 -61 48.334 -119 89.001l68 52c32.667 24 53.334 40 62.001 48c26.667 24.667 40 46.667 40 66
c0 17.333 -6.66699 28 -20 32s-40 6 -80 6h-180z" />
    <glyph glyph-name="four" unicode="4" horiz-adv-x="692" 
d="M368 362v156h178v-156h82v-184h-82v-178h-178v178h-352v164l206 476h226l-198 -456h118z" />
    <glyph glyph-name="five" unicode="5" horiz-adv-x="614" 
d="M196 378h-142.002l24 440h400l50 -184h-258l-4 -84h64c84.667 0 146.334 -23.333 185.001 -70c30 -36.667 45 -86.667 45 -150c0 -42.667 -7.66699 -82.667 -23 -120c-24.667 -59.333 -66.334 -106.333 -125.001 -141c-77.333 -46 -180.666 -69 -309.999 -69l-50 184
c102.667 0 178.667 14 228 42c38.667 22 58 50 58 84c0 27.333 -12.667 46.333 -38 57c-17.333 7.33301 -42.666 11 -75.999 11h-28z" />
    <glyph glyph-name="six" unicode="6" horiz-adv-x="692" 
d="M270 818l247.999 -0.000976562c-28 -37.333 -62 -86.666 -102 -147.999c-35.333 -54.667 -60 -96 -74 -124c86 0 157 -23.333 213 -70c60.667 -50 91 -117.333 91 -202c0 -81.333 -23 -147.666 -69 -198.999c-55.333 -62 -138.333 -93 -249 -93
c-100 0 -176.333 26 -229 78c-50 49.333 -75 117.333 -75 204c0 61.333 13 126.666 39 195.999c22 58.667 53.333 121.667 94 189c24.667 40.667 62.334 97 113.001 169zM293.999 371.999l-32.001 -0.00195312c-14.667 -31.333 -22 -62.666 -22 -93.999
s8.33301 -57.166 25 -77.499s40.334 -30.5 71.001 -30.5c28 0 50.667 9 68 27s26 41 26 69c0 36 -14.333 63.333 -43 82c-24.667 16 -55.667 24 -93 24z" />
    <glyph glyph-name="seven" unicode="7" horiz-adv-x="588" 
d="M56 818h502l-250 -818h-224l196 634h-274z" />
    <glyph glyph-name="eight" unicode="8" horiz-adv-x="692" 
d="M340 324c-26 -20.667 -43.998 -36.334 -53.998 -47.001c-21.333 -22.667 -32 -43 -32 -61s10.333 -31 31 -39c15.333 -6 33.666 -9 54.999 -9s39.666 3 54.999 9c20.667 8 31 21 31 39c0 18.667 -10.333 39 -31 61c-12 12.667 -30.333 28.334 -55 47.001zM340.002 538
c16.667 11.333 30 22.333 40 33c14.667 16 22 31.667 22 47c0 16 -6.33301 27 -19 33s-27.667 9 -45 9c-18 0 -32 -2.33301 -42 -7c-14.667 -7.33301 -22 -19 -22 -35c0 -15.333 7.66699 -31 23 -47c10 -10.667 24.333 -21.667 43 -33zM180.002 434
c-41.333 34 -69.668 61.999 -85.001 83.999c-23.333 33.333 -35 71.333 -35 114c0 56.667 14 100.334 42 131.001c44.667 48.667 124 73 238 73c115.333 0 195 -24 239 -72c28.667 -31.333 43 -75.333 43 -132c0 -42.667 -11.667 -80.334 -35 -113.001
c-15.333 -21.333 -44.333 -49.666 -87 -84.999c44.667 -35.333 77.667 -68.333 99 -99c28.667 -41.333 43 -85.666 43 -132.999c0 -61.333 -16 -109 -48 -143c-48 -51.333 -132.667 -77 -254 -77s-205.666 25.333 -252.999 76c-31.333 33.333 -47 81.333 -47 144
c0 48 13.667 92 41 132c21.333 31.333 54.333 64.666 99 99.999z" />
    <glyph glyph-name="nine" unicode="9" horiz-adv-x="692" 
d="M150 0l-50.001 184c50 0 92.667 5 128 15c48 13.333 86.667 35.666 116 66.999c-106.667 16.667 -188.667 52.334 -246 107.001s-86 123.667 -86 207c0 68.667 21.333 125.667 64 171c53.333 56.667 133.333 85 240 85c114.667 0 199 -28.333 253 -85
c50 -52 75 -129 75 -231c0 -134 -38.667 -251 -116 -351c-87.333 -112.667 -202.666 -169 -345.999 -169h-32zM415.999 442c4 14.667 7.33398 29.667 10.001 45s4 29.666 4 42.999c0 34 -9.16699 61.167 -27.5 81.5s-44.5 30.5 -78.5 30.5
c-26.667 0 -48.334 -6.33301 -65.001 -19s-25 -31.667 -25 -57c0 -37.333 21.667 -67.333 65 -90c30 -15.333 69 -26.666 117 -33.999z" />
    <glyph glyph-name="colon" unicode=":" horiz-adv-x="410" 
d="M240 604v-184h-180v184h180zM240 184v-184h-180v184h180z" />
    <glyph glyph-name="semicolon" unicode=";" horiz-adv-x="410" 
d="M262 182l-82 -278h-188l82 278h188zM258 604v-184h-180v184h180z" />
    <glyph glyph-name="less" unicode="&#x3c;" horiz-adv-x="346" 
d="M234 522l-92 -172l86 -192l-106 -48l-112 240l122 228z" />
    <glyph glyph-name="equal" unicode="=" 
 />
    <glyph glyph-name="greater" unicode="&#x3e;" horiz-adv-x="346" 
d="M16 522l104 56l120 -228l-112 -240l-106 48l86 192z" />
    <glyph glyph-name="question" unicode="?" horiz-adv-x="652" 
d="M96 818l246 0.00195312c78.667 0 140.667 -23.333 186 -70c41.333 -42.667 62 -96 62 -160c0 -63.333 -25 -125 -75 -185l-163 -165l2 -4h-212v60c0 26 16.667 55.333 50 88c12 12 32 29.333 60 52c45.333 37.333 75 66.166 89 86.499s21 40.166 21 59.499
c0 22 -12.333 37.333 -37 46c-15.333 5.33301 -38.333 8 -69 8h-206zM352 184.002v-184h-210v184h210z" />
    <glyph glyph-name="at" unicode="@" 
 />
    <glyph glyph-name="A" unicode="A" horiz-adv-x="806" 
d="M692 608l-0.00292969 -608h-214v260h-234c0 -44 7.66699 -89 23 -135c12.667 -38.667 32.334 -80.334 59.001 -125.001l-174 -116c-39.333 60.667 -70.166 126.167 -92.499 196.5s-33.5 140.833 -33.5 211.5c0 76 11.833 147.833 35.5 215.5s60.5 126.5 110.5 176.5
c52.667 52.667 114.667 89.334 186 110.001c55.333 16 127.333 24 216 24h104l50 -184h-168c-99.333 0 -173.666 -22.667 -222.999 -68c-26 -24 -49.667 -64.667 -71 -122h212v164h214z" />
    <glyph glyph-name="B" unicode="B" horiz-adv-x="818" 
d="M468 0h-393.999v608h214v-424h122c28.667 0 49 2 61 6c22 7.33301 33 22 33 44c0 35.333 -26.333 74.333 -79 117c-40 32.667 -82.333 59 -127 79l66 52c31.333 21.333 52.666 37.333 63.999 48c26.667 24.667 40 46.667 40 66c0 17.333 -6.66699 28 -20 32s-40 6 -80 6
h-334l50 184h386c86.667 0 150 -20.333 190 -61c32 -32 48 -75 48 -129c0 -36 -10.667 -70.333 -32 -103c-16 -24 -41.333 -51 -76 -81c44.667 -31.333 79 -66 103 -104c27.333 -43.333 41 -90 41 -140c0 -55.333 -18 -100 -54 -134c-46.667 -44 -120.667 -66 -222 -66z" />
    <glyph glyph-name="C" unicode="C" horiz-adv-x="666" 
d="M582 184l-49.999 -183.999h-38c-134.667 0 -247 50 -337 150c-87.333 96.667 -131 212.667 -131 348c0 92 24 165.667 72 221c57.333 66 142.666 99 255.999 99h166l50 -184h-166c-40.667 0 -72 -6.33301 -94 -19c-42.667 -24.667 -64 -70.334 -64 -137.001
c0 -82 26.667 -150.667 80 -206c58 -60 134.667 -90 230 -90z" />
    <glyph glyph-name="D" unicode="D" horiz-adv-x="832" 
d="M248 0h-174v608h214v-424c70.667 0 130.667 30.667 180 92c46.667 58 70 125.333 70 202c0 66.667 -21 112 -63 136c-23.333 13.333 -55 20 -95 20h-346l50 184h346c113.333 0 198.333 -32.667 255 -98c48.667 -56 73 -130 73 -222c0 -148.667 -51 -270 -153 -364
c-97.333 -89.333 -216.333 -134 -357 -134z" />
    <glyph glyph-name="E" unicode="E" horiz-adv-x="704" 
d="M564 818l50 -184h-330v-122h300l-50 -184h-250v-144h352l-50 -184h-516v818h494z" />
    <glyph glyph-name="F" unicode="F" horiz-adv-x="666" 
d="M554 818l50 -183.999h-320v-132h290l-50 -184h-240v-202c0 -30.667 0.666992 -53 2 -67s5.33301 -30.333 12 -49l-194 -124c-12.667 25.333 -21.5 53.166 -26.5 83.499s-7.5 62.5 -7.5 96.5v762h484z" />
    <glyph glyph-name="G" unicode="G" horiz-adv-x="768" 
d="M496 184l0.000976562 192.001h-80v184h294v-560h-174c-141.333 0 -260.333 44.333 -357 133c-102 94 -153 215.667 -153 365c0 92 24 165.667 72 221c57.333 66 142.666 99 255.999 99h296l50 -184h-296c-40.667 0 -72 -6.33301 -94 -19
c-42.667 -24.667 -64 -70.334 -64 -137.001c0 -76 23.833 -144 71.5 -204s107.167 -90 178.5 -90z" />
    <glyph glyph-name="H" unicode="H" horiz-adv-x="806" 
d="M726 818v-818h-214v376h-224v-260c0 -30 0.5 -52.333 1.5 -67s4.5 -31 10.5 -49l-194 -124c-12.667 24.667 -21.167 52 -25.5 82s-6.5 62.667 -6.5 98v762h214v-258h224v258h214z" />
    <glyph glyph-name="I" unicode="I" horiz-adv-x="372" 
d="M288 818v-818h-214v818h214z" />
    <glyph glyph-name="J" unicode="J" horiz-adv-x="462" 
d="M58 818h328.001v-628c0 -116 -21.667 -202.667 -65 -260c-40.667 -54 -120.334 -106 -239.001 -156l-88 166c75.333 36 123.833 69.833 145.5 101.5s32.5 84.5 32.5 158.5v434h-164z" />
    <glyph glyph-name="K" unicode="K" horiz-adv-x="832" 
d="M284 818v-818h-214v818h214zM720 818l-194 -360l234 -458h-256l-218 450l194 368h240z" />
    <glyph glyph-name="L" unicode="L" horiz-adv-x="640" 
d="M284 818v-634h282l-50 -184h-446v818h214z" />
    <glyph glyph-name="M" unicode="M" horiz-adv-x="908" 
d="M830 818v-818h-214v494l-168 -220l-160 220l-2 -494h-214v818h202l174 -240l178 240h204z" />
    <glyph glyph-name="N" unicode="N" horiz-adv-x="806" 
d="M728 818v-818h-214v242l-226 274l-2 -516h-214v818h204l238 -278v278h214z" />
    <glyph glyph-name="O" unicode="O" horiz-adv-x="806" 
d="M400 -18c-115.333 0 -208.667 61 -280 183c-61.333 104.667 -92 219.667 -92 345c0 99.333 26 176 78 230c61.333 64 159.333 96 294 96s232.667 -32 294 -96c52 -54 78 -130.667 78 -230c0 -126.667 -30.333 -241.667 -91 -345c-71.333 -122 -165 -183 -281 -183z
M399.999 176c40 0 75 34.502 105 103.502s45 142.5 45 220.5c0 54 -11.5 91.5 -34.5 112.5s-61.5 31.5 -115.5 31.5s-92.167 -10.333 -114.5 -31s-33.5 -58.334 -33.5 -113.001c0 -76.667 15 -149.834 45 -219.501s64.333 -104.5 103 -104.5z" />
    <glyph glyph-name="P" unicode="P" horiz-adv-x="756" 
d="M288 182l-0.000976562 -182.001h-214v608h214v-216c42.667 22.667 79.334 47.334 110.001 74.001c44 38 66 73.333 66 106c0 26 -11.667 43.667 -35 53c-15.333 6 -38.333 9 -69 9h-326l50 184h332c93.333 0 163.333 -23.667 210 -71c38.667 -39.333 58 -91 58 -155
c0 -71.333 -27.667 -139 -83 -203c-66.667 -78 -171 -147 -313 -207z" />
    <glyph glyph-name="Q" unicode="Q" horiz-adv-x="832" 
d="M772 184l-50 -183.999h-322c-110 0 -200.333 51 -271 153c-67.333 97.333 -101 216.333 -101 357c0 99.333 26 176 78 230c61.333 64 159.333 96 294 96c133.333 0 230.333 -32 291 -96c51.333 -54 77 -130.667 77 -230c0 -122.667 -36 -231.334 -108 -326.001h112z
M398 192.001c44 0 81.334 41.335 112.001 124.002c25.333 68 38 129.333 38 184c0 53.333 -11.333 90.666 -34 111.999s-60.667 32 -114 32c-56 0 -95.667 -10.333 -119 -31s-35 -58.334 -35 -113.001c0 -56 12.333 -117 37 -183c31.333 -83.333 69.666 -125 114.999 -125z
" />
    <glyph glyph-name="R" unicode="R" horiz-adv-x="806" 
d="M84 818h393.999c88.667 0 154.334 -23.333 197.001 -70c34 -36.667 51 -84 51 -142c0 -55.333 -17.333 -105.666 -52 -150.999c-27.333 -36 -68.666 -71.667 -123.999 -107c32 -62 68 -122 108 -180c37.333 -54 80.666 -110 129.999 -168l-180 -124
c-63.333 72 -122 152.667 -176 242c-46.667 77.333 -92.667 166.666 -138 267.999l116 85c49.333 41.333 74 78.333 74 111c0 21.333 -10 36 -30 44c-13.333 5.33301 -33.333 8 -60 8h-360zM287.999 608v-608h-214v608h214z" />
    <glyph glyph-name="S" unicode="S" horiz-adv-x="614" 
d="M476 818l50 -184.001h-196c-21.333 0 -37 -2.5 -47 -7.5s-15 -11.833 -15 -20.5c0 -10 3.66699 -20 11 -30l23 -26l150 -166c33.333 -37.333 56.333 -66.666 69 -87.999c20.667 -34.667 31 -70 31 -106c0 -48.667 -14 -89.334 -42 -122.001
c-38.667 -45.333 -98 -68 -178 -68h-248l-50 184h194l14 -2c16 0 30.667 2.33301 44 7s20 12.334 20 23.001c0 10 -3.66699 20 -11 30l-23 26l-146 164c-41.333 48 -68.333 85.667 -81 113s-19 55 -19 83c0 48 14.333 88.667 43 122c38.667 45.333 97.667 68 177 68h230z
" />
    <glyph glyph-name="T" unicode="T" horiz-adv-x="678" 
d="M596 818l50 -184h-228v-634h-214v634h-230l52 184h570z" />
    <glyph glyph-name="U" unicode="U" horiz-adv-x="794" 
d="M698 818l0.00195312 -818h-348c-112.667 -0 -196.334 32.333 -251.001 97c-48.667 57.333 -73 137 -73 239c0 79.333 14 162 42 248c21.333 64.667 54.666 142.667 99.999 234h232l-61 -132c-26.667 -60 -47.667 -116.333 -63 -169c-20 -67.333 -30 -126.333 -30 -177
c0 -66.667 21 -112 63 -136c23.333 -13.333 55 -20 95 -20h80v634h214z" />
    <glyph glyph-name="V" unicode="V" horiz-adv-x="704" 
d="M200 818l120 -540l120 540h228l-222 -818h-252l-224 818h230z" />
    <glyph glyph-name="W" unicode="W" horiz-adv-x="1088" 
d="M1058 818l-206 -818h-234l-96 476h-4l-96 -476h-234l-208 818h236l94 -518h4l98 518h216l108 -514h4l84 514h234z" />
    <glyph glyph-name="X" unicode="X" horiz-adv-x="716" 
d="M320 262l-112 -262h-244l214 428l-196 390h244l94 -226l96 226h242l-196 -390l214 -428h-242z" />
    <glyph glyph-name="Y" unicode="Y" horiz-adv-x="704" 
d="M658 818l-240 -492v-210c0 -30 0.5 -52.333 1.5 -67s4.5 -31 10.5 -49l-194 -124c-12.667 24.667 -21.167 52 -25.5 82s-6.5 62.667 -6.5 98v270l-242 492h244l104 -244l104 244h244z" />
    <glyph glyph-name="Z" unicode="Z" horiz-adv-x="614" 
d="M72 818h514l-282 -634h272l-50 -184h-540l282 634h-246z" />
    <glyph glyph-name="bracketleft" unicode="[" horiz-adv-x="410" 
d="M390 -184h-366v1002h366l-48 -158h-104v-686h104z" />
    <glyph glyph-name="backslash" unicode="\" 
 />
    <glyph glyph-name="bracketright" unicode="]" horiz-adv-x="410" 
d="M376 -184h-364l48 158h102v686h-102l-48 158h364v-1002z" />
    <glyph glyph-name="asciicircum" unicode="^" horiz-adv-x="500" 
d="M326 818l96 -154h-136l-38 60l-36 -60h-132l94 154h152z" />
    <glyph glyph-name="underscore" unicode="_" horiz-adv-x="500" 
d="M500 -26v-158h-500v158h500z" />
    <glyph glyph-name="grave" unicode="`" horiz-adv-x="526" 
d="M82 818h148l68 -160h-140z" />
    <glyph glyph-name="a" unicode="a" horiz-adv-x="666" 
d="M564 604v-603.999h-192c-96 0 -178.667 36.667 -248 110s-104 160.666 -104 261.999c0 68 17.667 121.667 53 161c42.667 47.333 109 71 199 71h292zM372 164.001v278.001h-62c-26 0 -45.333 -3.33301 -58 -10c-24 -12.667 -36 -37.334 -36 -74.001
c0 -47.333 14.5 -90 43.5 -128s66.5 -60 112.5 -66z" />
    <glyph glyph-name="b" unicode="b" horiz-adv-x="652" 
d="M248 818v-213.999h100c90 0 156.333 -23.667 199 -71c35.333 -39.333 53 -93 53 -161c0 -100.667 -34.167 -187.834 -102.5 -261.501s-149.5 -110.5 -243.5 -110.5h-198v818h192zM248 442.001l0.000976562 -278.001c45.333 6 82.666 28 111.999 66s44 80.667 44 128
c0 28.667 -7.16699 49.834 -21.5 63.501s-38.5 20.5 -72.5 20.5h-62z" />
    <glyph glyph-name="c" unicode="c" horiz-adv-x="526" 
d="M392 604l48 -161.998h-130c-26 0 -45.333 -3.33301 -58 -10c-24 -12.667 -36 -37.334 -36 -74.001c0 -48 16.167 -92.333 48.5 -133s71.5 -61 117.5 -61h68l-48 -164h-30c-96 0 -178.667 36.667 -248 110s-104 160.666 -104 261.999c0 68 17.667 121.667 53 161
c42.667 47.333 109 71 199 71h120z" />
    <glyph glyph-name="d" unicode="d" horiz-adv-x="640" 
d="M378 818l192 0.000976562v-818h-198c-96 0 -178.667 36.667 -248 110s-104 160.666 -104 261.999c0 68 17.667 121.667 53 161c42.667 47.333 109 71 199 71h106v214zM378 442.001l-68 0.000976562c-26 0 -45.333 -3.33301 -58 -10c-24 -12.667 -36 -37.334 -36 -74.001
c0 -47.333 14.5 -90 43.5 -128s66.5 -60 112.5 -66h6v278z" />
    <glyph glyph-name="e" unicode="e" horiz-adv-x="614" 
d="M536 164l-48 -163.999h-116c-96 0 -178.667 36.667 -248 110s-104 160.666 -104 261.999c0 82.667 21.167 144.334 63.5 185.001s109.166 61 200.499 61h54c72.667 0 128.5 -13.333 167.5 -40s58.5 -66 58.5 -118v-8c0 -60.667 -23.333 -116.334 -70 -167.001
c-33.333 -36 -82.666 -73 -147.999 -111c24.667 -4.66699 48 -7.5 70 -8.5s36.667 -1.5 44 -1.5h76zM368 424.001c0 14 -5.33301 22.832 -16 26.499s-24.667 5.5 -42 5.5c-62.667 0 -94 -30 -94 -90c0 -10.667 1.33301 -22.667 4 -36s6 -25.333 10 -36
c31.333 15.333 59.333 33 84 53c36 28.667 54 54.334 54 77.001z" />
    <glyph glyph-name="f" unicode="f" horiz-adv-x="422" 
d="M68 446h-42v158h42l-2 32c0 56.667 14 100.334 42 131.001c31.333 34 79.333 51 144 51h102l48 -164h-96c-16 0 -28 -2.83301 -36 -8.5s-12 -16.834 -12 -33.501l2 -8h112v-158h-112v-446h-192v446z" />
    <glyph glyph-name="g" unicode="g" horiz-adv-x="640" 
d="M564 604v-597.999c0 -84.667 -16.167 -142.5 -48.5 -173.5s-93.5 -46.5 -183.5 -46.5h-212l-50 164h244c17.333 0 30.333 2.66699 39 8c12.667 8 19 22 19 42c-96 0 -178.667 36.667 -248 110s-104 160.666 -104 261.999c0 68 17.667 121.667 53 161
c42.667 47.333 109 71 199 71h292zM372 442.001l-62 0.000976562c-26 0 -45.333 -3.33301 -58 -10c-24 -12.667 -36 -37.334 -36 -74.001c0 -47.333 14.5 -90 43.5 -128s66.5 -60 112.5 -66v278z" />
    <glyph glyph-name="h" unicode="h" horiz-adv-x="614" 
d="M246 818v-214h106c80 0 136 -18.167 168 -54.5s48 -95.5 48 -177.5v-372h-192v344c0 41.333 -4 67.333 -12 78c-10 13.333 -34 20 -72 20h-46v-442h-192v818h192z" />
    <glyph glyph-name="i" unicode="i" horiz-adv-x="308" 
d="M246 604v-604h-192v604h192zM246 818v-164h-192v164h192z" />
    <glyph glyph-name="j" unicode="j" horiz-adv-x="346" 
d="M266 604v-476.001c0 -82 -12.333 -150.667 -37 -206c-20 -45.333 -55.667 -94.666 -107 -147.999l-152 108c34.667 36 60.667 75.333 78 118s26 92.667 26 150v454h192zM266 817.999v-164h-192v164h192z" />
    <glyph glyph-name="k" unicode="k" horiz-adv-x="666" 
d="M248 818v-818h-192v818h192zM580 604l-126 -264l152 -340h-212l-144 334l120 270h210z" />
    <glyph glyph-name="l" unicode="l" horiz-adv-x="308" 
d="M246 818v-818h-192v818h192z" />
    <glyph glyph-name="m" unicode="m" horiz-adv-x="896" 
d="M54 604h575.999c80 0 136 -18.167 168 -54.5s48 -95.5 48 -177.5v-372h-188v344c0 42 -3.66699 68 -11 78c-9.33301 13.333 -33.666 20 -72.999 20h-30v-442h-188v442h-114v-442h-188v604z" />
    <glyph glyph-name="n" unicode="n" horiz-adv-x="628" 
d="M54 604h298c80 0 136 -18.167 168 -54.5s48 -95.5 48 -177.5v-372h-192v344c0 41.333 -4 67.333 -12 78c-10 13.333 -34 20 -72 20h-46v-442h-192v604z" />
    <glyph glyph-name="o" unicode="o" horiz-adv-x="628" 
d="M268 618l84.001 0.000976562c82 0 143.833 -20.5 185.5 -61.5s62.5 -96.5 62.5 -166.5c0 -103.333 -25.333 -195 -76 -275c-56 -88.667 -127.333 -133 -214 -133c-84.667 0 -155 44 -211 132c-51.333 81.333 -77 173.333 -77 276c-4 67.333 15.667 122.166 59 164.499
s105.666 63.5 186.999 63.5zM310.001 156.001c20 0 40 20.001 60 60.001c22.667 45.333 34 97.333 34 156c0 29.333 -8 50.666 -24 63.999s-39.333 20 -70 20s-53.667 -6.5 -69 -19.5s-23 -34.5 -23 -64.5c0 -58 11 -109.667 33 -155c20 -40.667 39.667 -61 59 -61z" />
    <glyph glyph-name="p" unicode="p" horiz-adv-x="652" 
d="M56 604h292.001c90 0 156.333 -23.667 199 -71c35.333 -39.333 53 -93 53 -161c0 -90.667 -28.667 -170 -86 -238c-62.667 -74.667 -151.334 -124 -266.001 -148v-196h-192v814zM248.001 442l0.000976562 -278.001c45.333 6 82.666 28 111.999 66s44 80.667 44 128
c0 28.667 -7.16699 49.834 -21.5 63.501s-38.5 20.5 -72.5 20.5h-62z" />
    <glyph glyph-name="q" unicode="q" horiz-adv-x="614" 
d="M568 604v-813.999h-192v210h-104c-90 0 -156.333 23.667 -199 71c-35.333 39.333 -53 93 -53 161c0 101.333 34.667 188.666 104 261.999s152 110 248 110h196zM376 164.001l-0.00195312 278h-4c-45.333 -6 -82.666 -28.333 -111.999 -67s-44 -81.667 -44 -129
c0 -36 11.667 -60 35 -72c12.667 -6.66699 32.334 -10 59.001 -10h66z" />
    <glyph glyph-name="r" unicode="r" horiz-adv-x="436" 
d="M58 604h184.001v-34c18 16.667 38.167 28.834 60.5 36.501s46.833 11.5 73.5 11.5v-172c-26.667 0 -50.834 -5.33301 -72.501 -16s-39.5 -27.334 -53.5 -50.001v-380h-192v604z" />
    <glyph glyph-name="s" unicode="s" horiz-adv-x="474" 
d="M348 604l47.999 -158.001h-86c-22 0 -36.833 -1.33301 -44.5 -4s-11.5 -8.66699 -11.5 -18c0 -5.33301 2.16699 -11 6.5 -17l9.5 -13l86 -108c18.667 -23.333 32.334 -44.333 41.001 -63c11.333 -24.667 17 -49.667 17 -75c0 -40 -13.333 -74 -40 -102
c-29.333 -30.667 -66.666 -46 -111.999 -46h-194l-48 164h106c1.33301 0 6.33301 -0.666992 15 -2s15.667 -2 21 -2c8 0 15 1.5 21 4.5s9 7.5 9 13.5c0 5.33301 -3.66699 13.333 -11 24c-2.66699 4 -8.33398 11.333 -17.001 22l-80 106c-20 24.667 -34 45.334 -42 62.001
c-12 24 -18 48.667 -18 74c0 30 10.667 58 32 84c30 36 73.333 54 130 54h162z" />
    <glyph glyph-name="t" unicode="t" horiz-adv-x="410" 
d="M256 780v-175.999h100v-158h-100v-230c0 -16 3.5 -28.667 10.5 -38s19.5 -14 37.5 -14h76l-48 -164h-86c-58 0 -101.667 12.667 -131 38c-34 29.333 -51 78.666 -51 147.999v260h-44v158h44v118z" />
    <glyph glyph-name="u" unicode="u" horiz-adv-x="628" 
d="M570 604v-604.001h-306c-87.333 0 -151 25 -191 75c-34 42 -51 101 -51 177c0 38.667 6.66699 83.334 20 134.001c16.667 62.667 44 135.334 82 218.001h198c-33.333 -86.667 -54 -142.334 -62 -167.001c-24 -72.667 -36 -129.667 -36 -171c0 -44.667 12.333 -74 37 -88
c16.667 -9.33301 49 -14 97 -14h20v440h192z" />
    <glyph glyph-name="v" unicode="v" horiz-adv-x="614" 
d="M582 604l-190 -604h-222l-192 604h204l98 -386l100 386h202z" />
    <glyph glyph-name="w" unicode="w" horiz-adv-x="922" 
d="M900 604l-162 -604h-208l-88 366h-4l-88 -366h-208l-164 604h206l74 -406h4l88 406h180l88 -406h4l74 406h204z" />
    <glyph glyph-name="x" unicode="x" horiz-adv-x="602" 
d="M322 604h216l-150 -280l170 -324h-222l-74 216l-76 -216h-224l172 324l-152 280h218l62 -180z" />
    <glyph glyph-name="y" unicode="y" horiz-adv-x="614" 
d="M588 604l-288 -812h-206l94 260l-216 552h228l88 -286l88 286h212z" />
    <glyph glyph-name="z" unicode="z" horiz-adv-x="500" 
d="M66 604h414l-206 -440h194l-48 -164h-430l208 446h-180z" />
    <glyph glyph-name="braceleft" unicode="{" horiz-adv-x="410" 
d="M318 640l-0.000976562 -182c0 -47.333 -5 -81 -15 -101c-12.667 -25.333 -37.667 -42.333 -75 -51c36 -9.33301 60.667 -27 74 -53c10.667 -21.333 16 -55 16 -101v-184c0 -40 6.33301 -69.5 19 -88.5s36.334 -33.5 71.001 -43.5v-44h-166c-40 0 -73 10.667 -99 32
s-39 47.333 -39 78v272c0 38 -6.5 67.167 -19.5 87.5s-35.167 34.5 -66.5 42.5c31.333 8.66699 53.5 23.167 66.5 43.5s19.5 49.833 19.5 88.5v272c0 30 13.167 55.833 39.5 77.5s59.166 32.5 98.499 32.5h166v-46c-33.333 -8.66699 -56.666 -23 -69.999 -43
s-20 -49.667 -20 -89z" />
    <glyph glyph-name="bar" unicode="|" 
 />
    <glyph glyph-name="braceright" unicode="}" horiz-adv-x="410" 
d="M-8 772v45.998h166c40 0 73.333 -10.833 100 -32.5s40 -47.5 40 -77.5v-272c0 -38.667 6.16699 -68 18.5 -88s34.166 -34 65.499 -42c-31.333 -8.66699 -53.166 -23 -65.499 -43s-18.5 -49.667 -18.5 -89v-272c0 -30 -13.333 -55.833 -40 -77.5s-60 -32.5 -100 -32.5
h-166v44c34 10 57.833 24.833 71.5 44.5s20.5 48.834 20.5 87.501v184c0 48 4.66699 81.667 14 101c12 25.333 36.667 42.333 74 51c-36 9.33301 -60.333 27 -73 53c-10 20.667 -15 54.334 -15 101.001v182c0 39.333 -6.83301 69 -20.5 89s-37.5 34.333 -71.5 43z" />
    <glyph glyph-name="asciitilde" unicode="~" horiz-adv-x="500" 
d="M366 812l74 -65.999c-18 -28.667 -39 -49 -63 -61c-14.667 -7.33301 -29 -11 -43 -11c-14.667 0 -31.334 2.66699 -50.001 8c-46 13.333 -72.667 20 -80 20c-10 0 -19.5 -2.16699 -28.5 -6.5s-16.833 -11.5 -23.5 -21.5l-70 66c16.667 26.667 35 46 55 58
c15.333 9.33301 32.333 14 51 14c4.66699 0 11.834 -1.5 21.501 -4.5l30.5 -9.5c1.33301 -0.666992 13 -4.33398 35 -11.001c14.667 -4.66699 25.667 -7 33 -7c26.667 0 46 10.667 58 32z" />
    <glyph glyph-name="c128" 
 />
    <glyph glyph-name="c129" 
 />
    <glyph glyph-name="c141" 
 />
    <glyph glyph-name="c142" 
 />
    <glyph glyph-name="c143" 
 />
    <glyph glyph-name="c144" 
 />
    <glyph glyph-name="c157" 
 />
    <glyph glyph-name="c158" 
 />
    <glyph glyph-name="nonbreakingspace" unicode="&#xa0;" horiz-adv-x="500" 
 />
    <glyph glyph-name="exclamdown" unicode="&#xa1;" horiz-adv-x="550" 
d="M306 -212h-212v584h212v-584zM306 420h-212v184h212v-184z" />
    <glyph glyph-name="cent" unicode="&#xa2;" horiz-adv-x="500" 
d="M404 710l48.001 -161.999h-130c-26 0 -45.333 -3.33301 -58 -10c-24 -12.667 -36 -37.334 -36 -74.001c0 -48 16.167 -92.333 48.5 -133s71.5 -61 117.5 -61h68l-48 -164h-32c-16.667 0 -36 2 -58 6v-68h-106v110c-52.667 26.667 -97.334 70 -134.001 130
c-16.667 30.667 -29.5 62.167 -38.5 94.5s-13.5 65.5 -13.5 99.5c0 58.667 13 106.667 39 144c31.333 44.667 80.333 72.667 147 84v96h106v-92h80z" />
    <glyph glyph-name="sterling" unicode="&#xa3;" horiz-adv-x="692" 
d="M564 818l50 -184h-190c-43.333 0 -69.833 -3.83301 -79.5 -11.5s-14.5 -28.5 -14.5 -62.5l2 -28v-24h188v-184h-188v-140h322l-50 -184h-486v324h-60v184h60v102c0 77.333 20.667 133.333 62 168c32 26.667 76.667 40 134 40h250z" />
    <glyph glyph-name="currency" unicode="&#xa4;" 
 />
    <glyph glyph-name="yen" unicode="&#xa5;" horiz-adv-x="716" 
d="M674 818l-180 -369.999h130v-158h-190v-174c0 -30.667 0.666992 -53 2 -67s5.33301 -30.333 12 -49l-194 -124c-12.667 25.333 -21.5 53.166 -26.5 83.499s-7.5 62.5 -7.5 96.5v234h-186v158h126l-180 370h244l104 -244l104 244h242z" />
    <glyph glyph-name="brokenbar" unicode="&#xa6;" 
 />
    <glyph glyph-name="section" unicode="&#xa7;" 
 />
    <glyph glyph-name="dieresis" unicode="&#xa8;" horiz-adv-x="500" 
d="M416 818v-136h-134v136h134zM218 818v-136h-134v136h134z" />
    <glyph glyph-name="copyright" unicode="&#xa9;" horiz-adv-x="946" 
d="M470 -18c-118 0 -218.5 41.833 -301.5 125.5s-124.5 184.5 -124.5 302.5s41.5 218.5 124.5 301.5s183.5 124.5 301.5 124.5s218.5 -41.5 301.5 -124.5s124.5 -183.5 124.5 -301.5s-41.5 -218.833 -124.5 -302.5s-183.5 -125.5 -301.5 -125.5zM470 98
c86 0 159.5 30.5 220.5 91.5s91.5 134.5 91.5 220.5s-30.5 159.167 -91.5 219.5s-134.5 90.5 -220.5 90.5s-159.5 -30.167 -220.5 -90.5s-91.5 -133.5 -91.5 -219.5s30.5 -159.5 91.5 -220.5s134.5 -91.5 220.5 -91.5zM638 282l-36.001 -103.999h-26
c-97.333 0 -177.666 27.667 -240.999 83s-95 121.666 -95 198.999c0 52.667 17 95 51 127c40.667 38 101.667 57 183 57h116l36 -106h-74c-54 0 -90.333 -3.66699 -109 -11c-30 -12 -45 -37.667 -45 -77c0 -47.333 20 -87.5 60 -120.5s94.667 -49.5 164 -49.5z" />
    <glyph glyph-name="ordfeminine" unicode="&#xaa;" horiz-adv-x="372" 
d="M362 826l0.000976562 -361.999h-124c-62.667 0 -116.334 22 -161.001 66s-67 96 -67 156c0 41.333 11.333 73.666 34 96.999c27.333 28.667 70 43 128 43h190zM238.001 562.001l0.000976562 166h-40c-22.667 0 -38.667 -4 -48 -12s-14 -20.667 -14 -38
c0 -28.667 9.66699 -54.5 29 -77.5s43.666 -35.833 72.999 -38.5zM22.002 410.001h340v-98h-340v98z" />
    <glyph glyph-name="guillemotleft" unicode="&#xab;" horiz-adv-x="526" 
d="M240 522l-92 -172l86 -192l-106 -48l-112 240l122 228zM468 522l-92 -172l86 -192l-106 -48l-112 240l120 228z" />
    <glyph glyph-name="logicalnot" unicode="&#xac;" 
 />
    <glyph glyph-name="minus" unicode="&#xad;" 
d="M322 430v-158h-324v158h324z" />
    <glyph glyph-name="registered" unicode="&#xae;" horiz-adv-x="946" 
d="M470 -18c-118 0 -218.5 41.833 -301.5 125.5s-124.5 184.5 -124.5 302.5s41.5 218.5 124.5 301.5s183.5 124.5 301.5 124.5s218.5 -41.5 301.5 -124.5s124.5 -183.5 124.5 -301.5s-41.5 -218.833 -124.5 -302.5s-183.5 -125.5 -301.5 -125.5zM470 98
c86 0 159.5 30.5 220.5 91.5s91.5 134.5 91.5 220.5s-30.5 159.167 -91.5 219.5s-134.5 90.5 -220.5 90.5s-159.5 -30.167 -220.5 -90.5s-91.5 -133.5 -91.5 -219.5s30.5 -159.5 91.5 -220.5s134.5 -91.5 220.5 -91.5zM414 212h-124v318h124v-318zM296 646
l224.002 0.000976562c49.333 0 86.666 -12.333 111.999 -37c20 -20 30 -44.333 30 -73s-9.66699 -55 -29 -79c-15.333 -19.333 -39 -38.333 -71 -57c18 -32 37.667 -62.667 59 -92s43.666 -56 66.999 -80l-102 -64c-31.333 32.667 -61.5 71.167 -90.5 115.5
s-55.5 91.166 -79.5 140.499l66 44c28 22 42 42 42 60c0 10.667 -4.83301 17.667 -14.5 21s-22.167 5 -37.5 5h-204z" />
    <glyph glyph-name="macron" unicode="&#xaf;" horiz-adv-x="410" 
d="M362 818v-158h-322v158h322z" />
    <glyph glyph-name="degree" unicode="&#xb0;" 
 />
    <glyph glyph-name="plusminus" unicode="&#xb1;" 
 />
    <glyph glyph-name="twosuperior" unicode="&#xb2;" horiz-adv-x="398" 
d="M72 818l165.999 0.000976562c46 0 80 -11 102 -33c17.333 -17.333 26 -39 26 -65c0 -19.333 -4 -38.333 -12 -57c-3.33301 -8.66699 -12.666 -25.667 -27.999 -51l-96 -174h150l-32 -110h-336l180 322c5.33301 9.33301 9.33301 16.833 12 22.5s4 10.167 4 13.5
c0 11.333 -6.66699 17.666 -20 18.999s-24 2.33301 -32 3h-116z" />
    <glyph glyph-name="threesuperior" unicode="&#xb3;" horiz-adv-x="398" 
d="M68 818h152c56.667 0 98 -12 124 -36c21.333 -20 32 -46 32 -78c0 -21.333 -7 -42 -21 -62c-10.667 -14.667 -28.334 -32.667 -53.001 -54c30 -23.333 51 -43.333 63 -60c18 -24 27 -50.667 27 -80c0 -30.667 -10.333 -56.667 -31 -78c-27.333 -28 -67 -42 -119 -42h-182
l-34 110h136l16 -2c14.667 0 27.667 2.33301 39 7s17 12.334 17 23.001c0 17.333 -16.667 39.333 -50 66c-2 2 -27.333 20 -76 54l42 30c26 18 39.667 27.667 41 29c18 14.667 27 27.667 27 39c0 13.333 -5.16699 20.666 -15.5 21.999s-27.166 2 -50.499 2h-116z" />
    <glyph glyph-name="acute" unicode="&#xb4;" horiz-adv-x="398" 
d="M368 818l-76 -160h-140l66 160h150z" />
    <glyph glyph-name="mu" unicode="&#xb5;" horiz-adv-x="666" 
d="M570 604l0.000976562 -604.001h-318c5.33301 -21.333 12.833 -41.333 22.5 -60s23.5 -38 41.5 -58l-150 -108c-22.667 24 -42.334 50 -59.001 78c-24.667 42 -44 92 -58 150c-18 74 -27 157.333 -27 250c0 38.667 6.66699 83.334 20 134.001
c16.667 62.667 44 135.334 82 218.001h198c-33.333 -86.667 -54 -142.334 -62 -167.001c-24 -72.667 -36 -129.667 -36 -171c0 -44.667 12.333 -74 37 -88c16.667 -9.33301 49 -14 97 -14h20v440h192z" />
    <glyph glyph-name="paragraph" unicode="&#xb6;" 
 />
    <glyph glyph-name="periodcentered" unicode="&#xb7;" horiz-adv-x="308" 
d="M240 444v-184h-180v184h180z" />
    <glyph glyph-name="periodcentered" unicode="&#x2219;" horiz-adv-x="308" 
d="M240 444v-184h-180v184h180z" />
    <glyph glyph-name="cedilla" unicode="&#xb8;" horiz-adv-x="550" 
d="M296 98v-108.001h22c11.333 0 19.5 -2.83301 24.5 -8.5s7.5 -13.5 7.5 -23.5v-110c0 -14.667 -3.16699 -27.667 -9.5 -39s-15.833 -17 -28.5 -17h-114v84h68v58h-20c-9.33301 0 -17 2.33301 -23 7s-9 12.334 -9 23.001v134h82z" />
    <glyph glyph-name="onesuperior" unicode="&#xb9;" horiz-adv-x="244" 
d="M34 818h194v-490h-136v380h-90z" />
    <glyph glyph-name="ordmasculine" unicode="&#xba;" horiz-adv-x="384" 
d="M158 836h56c52.667 0 92.5 -12.167 119.5 -36.5s40.5 -58.166 40.5 -101.499c0 -62.667 -16.333 -117.667 -49 -165c-36 -52.667 -82.333 -79 -139 -79c-55.333 0 -101.333 26.333 -138 79c-33.333 48 -50 103 -50 165c0 43.333 13.5 77.166 40.5 101.499
s66.833 36.5 119.5 36.5zM186 558c12.667 0 26.166 13 40.499 39s21.5 56.333 21.5 91c0 33.333 -20.667 50 -62 50c-40 0 -60 -16.667 -60 -50c0 -35.333 6.83301 -65.833 20.5 -91.5s26.834 -38.5 39.501 -38.5zM9.99902 410h352v-98h-352v98z" />
    <glyph glyph-name="guillemotright" unicode="&#xbb;" horiz-adv-x="526" 
d="M260 522l104 56l120 -228l-112 -240l-106 48l86 192zM34 522l102 56l122 -228l-112 -240l-106 48l86 192z" />
    <glyph glyph-name="onequarter" unicode="&#xbc;" 
 />
    <glyph glyph-name="onehalf" unicode="&#xbd;" 
 />
    <glyph glyph-name="threequarters" unicode="&#xbe;" 
 />
    <glyph glyph-name="questiondown" unicode="&#xbf;" 
 />
    <glyph glyph-name="Agrave" unicode="&#xc0;" horiz-adv-x="14" 
d="M-320 1030l96 -154h-136l-36 62l-36 -62h-134l96 154h150zM-352 1184h172l72 -160h-82z" />
    <glyph glyph-name="Aacute" unicode="&#xc1;" horiz-adv-x="14" 
d="M-320 1030l96 -154h-136l-36 62l-36 -62h-134l96 154h150zM-2 1148l-162 -160h-82l72 160h172z" />
    <glyph glyph-name="Acircumflex" unicode="&#xc2;" horiz-adv-x="14" 
d="M-320 1030l96 -154h-136l-36 62l-36 -62h-134l96 154h150z" />
    <glyph glyph-name="Atilde" unicode="&#xc3;" horiz-adv-x="14" 
d="M-320 1030l96 -154h-136l-36 62l-36 -62h-134l96 154h150zM-288 1224l71.999 -64.001c-13.333 -22 -29.166 -39.5 -47.499 -52.5s-37.166 -19.5 -56.499 -19.5c-14.667 0 -31.334 2.66699 -50.001 8c-46 13.333 -72.667 20 -80 20c-10 0 -19.5 -2.16699 -28.5 -6.5
s-16.833 -11.5 -23.5 -21.5l-72 64c16 26.667 34.333 46 55 58c16 9.33301 33 14 51 14c4.66699 0 9.5 -0.5 14.5 -1.5s18.167 -4.5 39.5 -10.5c15.333 -5.33301 26.666 -9 33.999 -11c14.667 -4.66699 25.334 -7 32.001 -7c12.667 0 24.5 2.83301 35.5 8.5
s19.167 12.834 24.5 21.501z" />
    <glyph glyph-name="Adieresis" unicode="&#xc4;" horiz-adv-x="14" 
d="M-320 1030l96 -154h-136l-36 62l-36 -62h-134l96 154h150zM-300 -62v-164h-192v164h192z" />
    <glyph glyph-name="Aring" unicode="&#xc5;" horiz-adv-x="14" 
d="M-320 1030l96 -154h-136l-36 62l-36 -62h-134l96 154h150zM-190 1142c-11.333 0 -20.834 -1.50098 -28.501 -4.50098s-11.5 -8.16699 -11.5 -15.5h-102c0 26.667 9.33301 49 28 67s46 27 82 27h64c36 0 63.667 -8.66699 83 -26s29 -38.666 29 -63.999
s-11 -50.333 -33 -75l-73 -69v-30h-70v64c0 8.66699 5.33301 18.667 16 30s22.667 22 36 32c16 12.667 24 22.667 24 30l-2 14c0 7.33301 -4.16699 12.5 -12.5 15.5s-18.166 4.5 -29.499 4.5z" />
    <glyph glyph-name="AE" unicode="&#xc6;" horiz-adv-x="372" 
d="M288 818v-818h-214v818h214zM180 1052c-11.333 0 -20.834 -1.5 -28.501 -4.5s-11.5 -8.16699 -11.5 -15.5h-102c0 26.667 9.33301 49 28 67s46 27 82 27h64c36 0 63.667 -8.66699 83 -26s29 -38.666 29 -63.999c0 -24.667 -11.333 -49.667 -34 -75l-74 -69l2 -30h-70v64
c0 8.66699 5.33301 18.667 16 30s22.667 22 36 32c10 7.33301 16.167 12.666 18.5 15.999s3.5 8 3.5 14v14c0 7.33301 -4.16699 12.5 -12.5 15.5s-18.166 4.5 -29.499 4.5z" />
    <glyph glyph-name="Ccedilla" unicode="&#xc7;" horiz-adv-x="666" 
d="M582 184l-49.999 -183.999h-38c-134.667 0 -247 50 -337 150c-87.333 96.667 -131 212.667 -131 348c0 92 24 165.667 72 221c57.333 66 142.666 99 255.999 99h166l50 -184h-166c-40.667 0 -72 -6.33301 -94 -19c-42.667 -24.667 -64 -70.334 -64 -137.001
c0 -82 26.667 -150.667 80 -206c58 -60 134.667 -90 230 -90zM386.001 98.001v-108.001h22c11.333 0 19.5 -2.83301 24.5 -8.5s7.5 -13.5 7.5 -23.5v-110c0 -14.667 -3.16699 -27.667 -9.5 -39s-15.833 -17 -28.5 -17h-114v84h68v58h-20c-9.33301 0 -17 2.33301 -23 7
s-9 12.334 -9 23.001v134h82z" />
    <glyph glyph-name="Egrave" unicode="&#xc8;" horiz-adv-x="14" 
d="M-508 996c19.333 -12.667 37.835 -22.168 55.502 -28.501s36.5 -9.5 56.5 -9.5c18 0 35.167 2.66699 51.5 8s34.5 14 54.5 26l64 -62c-26.667 -23.333 -53.834 -41.166 -81.501 -53.499s-56.5 -18.5 -86.5 -18.5c-62.667 0 -121.334 25.333 -176.001 76zM-597.998 1188
h172l72 -160h-82z" />
    <glyph glyph-name="Eacute" unicode="&#xc9;" horiz-adv-x="14" 
d="M-508 996c19.333 -12.667 37.835 -22.168 55.502 -28.501s36.5 -9.5 56.5 -9.5c18 0 35.167 2.66699 51.5 8s34.5 14 54.5 26l64 -62c-26.667 -23.333 -53.834 -41.166 -81.501 -53.499s-56.5 -18.5 -86.5 -18.5c-62.667 0 -121.334 25.333 -176.001 76zM-191.998 1188
l-162 -160h-82l72 160h172z" />
    <glyph glyph-name="Ecircumflex" unicode="&#xca;" horiz-adv-x="14" 
d="M-508 996c19.333 -12.667 37.835 -22.168 55.502 -28.501s36.5 -9.5 56.5 -9.5c18 0 35.167 2.66699 51.5 8s34.5 14 54.5 26l64 -62c-26.667 -23.333 -53.834 -41.166 -81.501 -53.499s-56.5 -18.5 -86.5 -18.5c-62.667 0 -121.334 25.333 -176.001 76z" />
    <glyph glyph-name="Edieresis" unicode="&#xcb;" horiz-adv-x="14" 
d="M-508 996c19.333 -12.667 37.835 -22.168 55.502 -28.501s36.5 -9.5 56.5 -9.5c18 0 35.167 2.66699 51.5 8s34.5 14 54.5 26l64 -62c-26.667 -23.333 -53.834 -41.166 -81.501 -53.499s-56.5 -18.5 -86.5 -18.5c-62.667 0 -121.334 25.333 -176.001 76z
M-299.998 -62.001v-164h-192v164h192z" />
    <glyph glyph-name="Igrave" unicode="&#xcc;" horiz-adv-x="372" 
d="M288 818v-818h-214v818h214zM32 1028h172l72 -160h-82z" />
    <glyph glyph-name="Iacute" unicode="&#xcd;" horiz-adv-x="372" 
d="M288 818v-818h-214v818h214zM328 1028l-162 -160h-82l72 160h172z" />
    <glyph glyph-name="Icircumflex" unicode="&#xce;" horiz-adv-x="704" 
d="M658 818l-240 -492v-210c0 -30 0.5 -52.333 1.5 -67s4.5 -31 10.5 -49l-194 -124c-12.667 24.667 -21.167 52 -25.5 82s-6.5 62.667 -6.5 98v270l-242 492h244l104 -244l104 244h244zM430 -162v-164h-192v164h192z" />
    <glyph glyph-name="Idieresis" unicode="&#xcf;" horiz-adv-x="14" 
d="M-300 -62v-164h-192v164h192z" />
    <glyph glyph-name="Eth" unicode="&#xd0;" horiz-adv-x="372" 
d="M288 818v-818h-214v818h214zM360 1042v-136h-134v136h134zM162 1042v-136h-134v136h134z" />
    <glyph glyph-name="Ntilde" unicode="&#xd1;" horiz-adv-x="832" 
d="M248 0h-174.001v374h-88l28 100h60v134h214v-134h120l-28 -100h-92v-190c72.667 0 133.334 30.667 182.001 92c45.333 56.667 68 122 68 196v6c0 66.667 -21 112 -63 136c-23.333 13.333 -55 20 -95 20h-346l50 184h346c113.333 0 198.333 -32.667 255 -98
c48.667 -56 73 -130 73 -222c0 -148.667 -51 -270 -153 -364c-97.333 -89.333 -216.333 -134 -357 -134z" />
    <glyph glyph-name="Ograve" unicode="&#xd2;" horiz-adv-x="372" 
d="M288 818v-818h-214v818h214zM276 -62v-164h-192v164h192z" />
    <glyph glyph-name="Oacute" unicode="&#xd3;" horiz-adv-x="372" 
d="M288 818v-818h-214v818h214zM292 1024l71.998 -64.001c-13.333 -22 -29.166 -39.5 -47.499 -52.5s-37.166 -19.5 -56.499 -19.5c-15.333 0 -38 4.66699 -68 14s-51.333 14 -64 14c-20 0 -36.667 -9.33301 -50 -28l-72 64c16 26.667 34.333 46 55 58
c16 9.33301 33 14 51 14c4.66699 0 9.5 -0.5 14.5 -1.5s18.167 -4.5 39.5 -10.5c15.333 -5.33301 26.666 -9 33.999 -11c14.667 -4.66699 25.334 -7 32.001 -7c12.667 0 24.5 2.83301 35.5 8.5s19.167 12.834 24.5 21.501z" />
    <glyph glyph-name="Ocircumflex" unicode="&#xd4;" horiz-adv-x="806" 
d="M642 782c9.33301 7.33301 19.6689 22.333 31.002 45s17 39.667 17 51c0 30.667 21.333 46 64 46s64 -16 64 -48c0 -34.667 -11.333 -64.667 -34 -90s-53.334 -40 -92.001 -44c28 -27.333 48.333 -61 61 -101s19 -83.667 19 -131c0 -126.667 -30.333 -241.667 -91 -345
c-71.333 -122 -165 -183 -281 -183c-115.333 0 -208.666 61 -279.999 183c-61.333 104.667 -92 219.667 -92 345c0 99.333 26 176 78 230c61.333 64 159.333 96 294 96c51.333 0 97.166 -4.5 137.499 -13.5s75.166 -22.5 104.499 -40.5zM400.003 176
c40 0 75 34.502 105 103.502s45 142.5 45 220.5c0 54 -11.5 91.5 -34.5 112.5s-61.5 31.5 -115.5 31.5s-92.167 -10.333 -114.5 -31s-33.5 -58.334 -33.5 -113.001c0 -76.667 15 -149.834 45 -219.501s64.333 -104.5 103 -104.5z" />
    <glyph glyph-name="Otilde" unicode="&#xd5;" horiz-adv-x="14" 
d="M-288 1024l71.999 -64.001c-13.333 -22 -29.166 -39.5 -47.499 -52.5s-37.166 -19.5 -56.499 -19.5c-14.667 0 -31.334 2.66699 -50.001 8c-46 13.333 -72.667 20 -80 20c-10 0 -19.5 -2.16699 -28.5 -6.5s-16.833 -11.5 -23.5 -21.5l-72 64c16 26.667 34.333 46 55 58
c16 9.33301 33 14 51 14c4.66699 0 9.5 -0.5 14.5 -1.5s18.167 -4.5 39.5 -10.5c15.333 -5.33301 26.666 -9 33.999 -11c14.667 -4.66699 25.334 -7 32.001 -7c12.667 0 24.5 2.83301 35.5 8.5s19.167 12.834 24.5 21.501z" />
    <glyph glyph-name="Odieresis" unicode="&#xd6;" horiz-adv-x="768" 
d="M652 818c9.33301 0 21.335 13.333 36.002 40s22 46.667 22 60c0 30.667 21.333 46 64 46s64 -16 64 -48c0 -36.667 -12.833 -68.5 -38.5 -95.5s-59.5 -40.5 -101.5 -40.5v-780h-348c-112.667 -0 -196.334 32.333 -251.001 97c-48.667 57.333 -73 137 -73 239
c0 79.333 14 162 42 248c21.333 64.667 54.666 142.667 99.999 234h232l-61 -132c-26.667 -60 -47.667 -116.333 -63 -169c-20 -67.333 -30 -126.333 -30 -177c0 -66.667 21 -112 63 -136c23.333 -13.333 55 -20 95 -20h80v634h168z" />
    <glyph glyph-name="Oslash" unicode="&#xd8;" horiz-adv-x="14" 
d="M-548 1028h172l72 -160h-82z" />
    <glyph glyph-name="Ugrave" unicode="&#xd9;" horiz-adv-x="14" 
d="M-172 1028l-162 -160h-82l72 160h172z" />
    <glyph glyph-name="Uacute" unicode="&#xda;" horiz-adv-x="14" 
d="M-508 996c19.333 -12.667 37.835 -22.168 55.502 -28.501s36.5 -9.5 56.5 -9.5c18 0 35.167 2.66699 51.5 8s34.5 14 54.5 26l64 -62c-26.667 -23.333 -53.834 -41.166 -81.501 -53.499s-56.5 -18.5 -86.5 -18.5c-62.667 0 -121.334 25.333 -176.001 76zM-399.998 1212
c-11.333 0 -20.834 -1.50098 -28.501 -4.50098s-11.5 -8.16699 -11.5 -15.5h-102c0 26.667 9.33301 49 28 67s46 27 82 27h64c36 0 63.667 -8.66699 83 -26s29 -38.666 29 -63.999s-11 -50.333 -33 -75l-73 -69v-30h-70v64c0 8.66699 5.33301 18.667 16 30s22.667 22 36 32
c16 12.667 24 22.667 24 30l-2 14c0 7.33301 -4.16699 12.5 -12.5 15.5s-18.166 4.5 -29.499 4.5z" />
    <glyph glyph-name="Ucircumflex" unicode="&#xdb;" horiz-adv-x="14" 
d="M-400 1052c-11.333 0 -20.834 -1.50098 -28.501 -4.50098s-11.5 -8.16699 -11.5 -15.5h-102c0 26.667 9.33301 49 28 67s46 27 82 27h64c36 0 63.667 -8.66699 83 -26s29 -38.666 29 -63.999s-11 -50.333 -33 -75l-73 -69v-30h-70v64c0 8.66699 5.33301 18.667 16 30
s22.667 22 36 32c16 12.667 24 22.667 24 30l-2 14c0 7.33301 -4.16699 12.5 -12.5 15.5s-18.166 4.5 -29.499 4.5z" />
    <glyph glyph-name="Udieresis" unicode="&#xdc;" horiz-adv-x="14" 
d="M-508 996c19.333 -12.667 37.835 -22.168 55.502 -28.501s36.5 -9.5 56.5 -9.5c18 0 35.167 2.66699 51.5 8s34.5 14 54.5 26l64 -62c-26.667 -23.333 -53.834 -41.166 -81.501 -53.499s-56.5 -18.5 -86.5 -18.5c-62.667 0 -121.334 25.333 -176.001 76zM-187.998 1184
l71.999 -64.001c-13.333 -22 -29.166 -39.5 -47.499 -52.5s-37.166 -19.5 -56.499 -19.5c-14.667 0 -31.334 2.66699 -50.001 8c-46 13.333 -72.667 20 -80 20c-10 0 -19.5 -2.16699 -28.5 -6.5s-16.833 -11.5 -23.5 -21.5l-72 64c16 26.667 34.333 46 55 58
c16 9.33301 33 14 51 14c4.66699 0 9.5 -0.5 14.5 -1.5s18.167 -4.5 39.5 -10.5c15.333 -5.33301 26.666 -9 33.999 -11c14.667 -4.66699 25.334 -7 32.001 -7c12.667 0 24.5 2.83301 35.5 8.5s19.167 12.834 24.5 21.501z" />
    <glyph glyph-name="Yacute" unicode="&#xdd;" horiz-adv-x="372" 
d="M288 818v-818h-214v818h214zM250 1054l96 -154h-136l-38 60l-36 -60h-132l94 154h152z" />
    <glyph glyph-name="Thorn" unicode="&#xde;" horiz-adv-x="756" 
d="M288 92v-92h-214v818h214v-506c38 14 74.667 35.667 110 65c44 36.667 66 71.667 66 105c0 26.667 -11.333 47.334 -34 62.001c-18.667 12 -38.667 18 -60 18h-58v184h74c106 0 184.667 -26.667 236 -80c41.333 -42.667 62 -97.334 62 -164.001
c0 -71.333 -27.667 -139 -83 -203c-66.667 -78 -171 -147 -313 -207z" />
    <glyph glyph-name="agrave" unicode="&#xe0;" horiz-adv-x="14" 
d="M-242 818l96 -154h-136l-38 60l-36 -60h-132l94 154h152zM-288 984h172l72 -160h-82z" />
    <glyph glyph-name="aacute" unicode="&#xe1;" horiz-adv-x="14" 
d="M-242 818l96 -154h-136l-38 60l-36 -60h-132l94 154h152zM68 928l-162 -160h-82l72 160h172z" />
    <glyph glyph-name="acircumflex" unicode="&#xe2;" horiz-adv-x="14" 
d="M-242 818l96 -154h-136l-38 60l-36 -60h-132l94 154h152z" />
    <glyph glyph-name="atilde" unicode="&#xe3;" horiz-adv-x="14" 
d="M-242 818l96 -154h-136l-38 60l-36 -60h-132l94 154h152zM-224 1012l74 -66c-18 -28.667 -39 -49 -63 -61c-14.667 -7.33301 -29 -11 -43 -11c-14.667 0 -31 2.66699 -49 8c-45.333 13.333 -71.666 20 -78.999 20c-10 0 -19.833 -2.33301 -29.5 -7
s-17.834 -11.667 -24.501 -21l-70 66c16.667 26.667 35 46 55 58c15.333 9.33301 32.333 14 51 14c4.66699 0 9.66699 -0.666992 15 -2c16 -6 26.5 -9.66699 31.5 -11s18.5 -5.33301 40.5 -12c14.667 -4.66699 25.667 -7 33 -7c26.667 0 46 10.667 58 32z" />
    <glyph glyph-name="adieresis" unicode="&#xe4;" horiz-adv-x="14" 
d="M-242 818l96 -154h-136l-38 60l-36 -60h-132l94 154h152zM-220 -62v-164h-192v164h192z" />
    <glyph glyph-name="aring" unicode="&#xe5;" horiz-adv-x="14" 
d="M-242 818l96 -154h-136l-38 60l-36 -60h-132l94 154h152zM-110 932c-11.333 0 -20.834 -1.50098 -28.501 -4.50098s-11.5 -8.16699 -11.5 -15.5h-102c0 26.667 9.33301 49 28 67s46 27 82 27h64c36 0 63.667 -8.66699 83 -26s29 -38.666 29 -63.999s-11 -50.333 -33 -75
l-73 -69v-30h-70v64c0 8.66699 5.33301 18.667 16 30s22.667 22 36 32c16 12.667 24 22.667 24 30l-2 14c0 7.33301 -4.16699 12.5 -12.5 15.5s-18.166 4.5 -29.499 4.5z" />
    <glyph glyph-name="ae" unicode="&#xe6;" horiz-adv-x="308" 
d="M246 604v-604h-192v604h192zM150 852c-11.333 0 -20.834 -1.5 -28.501 -4.5s-11.5 -8.16699 -11.5 -15.5h-102c0 26.667 9.33301 49 28 67s46 27 82 27h64c36 0 63.667 -8.66699 83 -26s29 -38.666 29 -63.999c0 -24.667 -11.333 -49.667 -34 -75l-74 -69l2 -30h-70v64
c0 8.66699 5.33301 18.667 16 30s22.667 22 36 32c10 7.33301 16.167 12.666 18.5 15.999s3.5 8 3.5 14v14c0 7.33301 -4.16699 12.5 -12.5 15.5s-18.166 4.5 -29.499 4.5z" />
    <glyph glyph-name="ccedilla" unicode="&#xe7;" horiz-adv-x="526" 
d="M392 604l48 -161.998h-130c-26 0 -45.333 -3.33301 -58 -10c-24 -12.667 -36 -37.334 -36 -74.001c0 -48 16.167 -92.333 48.5 -133s71.5 -61 117.5 -61h68l-48 -164h-30c-96 0 -178.667 36.667 -248 110s-104 160.666 -104 261.999c0 68 17.667 121.667 53 161
c42.667 47.333 109 71 199 71h120zM316 98.002v-108.001h22c11.333 0 19.5 -2.83301 24.5 -8.5s7.5 -13.5 7.5 -23.5v-110c0 -14.667 -3.16699 -27.667 -9.5 -39s-15.833 -17 -28.5 -17h-114v84h68v58h-20c-9.33301 0 -17 2.33301 -23 7s-9 12.334 -9 23.001v134h82z" />
    <glyph glyph-name="egrave" unicode="&#xe8;" horiz-adv-x="14" 
d="M-500 1004h172l72 -160h-82zM-400 796c18.667 -12.667 37.335 -22.168 56.002 -28.501s38 -9.5 58 -9.5c18 0 35.167 2.66699 51.5 8s34.5 14 54.5 26l64 -62c-26.667 -23.333 -53.834 -41.166 -81.501 -53.499s-56.5 -18.5 -86.5 -18.5
c-62.667 0 -121.334 25.333 -176.001 76z" />
    <glyph glyph-name="eacute" unicode="&#xe9;" horiz-adv-x="14" 
d="M-398 796c19.333 -12.667 37.835 -22.168 55.502 -28.501s36.5 -9.5 56.5 -9.5c18 0 35.167 2.66699 51.5 8s34.5 14 54.5 26l64 -62c-26.667 -23.333 -53.834 -41.166 -81.501 -53.499s-56.5 -18.5 -86.5 -18.5c-62.667 0 -121.334 25.333 -176.001 76zM-81.998 997.999
l-162 -160h-82l72 160h172z" />
    <glyph glyph-name="ecircumflex" unicode="&#xea;" horiz-adv-x="14" 
d="M-398 796c19.333 -12.667 37.835 -22.168 55.502 -28.501s36.5 -9.5 56.5 -9.5c18 0 35.167 2.66699 51.5 8s34.5 14 54.5 26l64 -62c-26.667 -23.333 -53.834 -41.166 -81.501 -53.499s-56.5 -18.5 -86.5 -18.5c-62.667 0 -121.334 25.333 -176.001 76z" />
    <glyph glyph-name="edieresis" unicode="&#xeb;" horiz-adv-x="14" 
d="M-398 796c19.333 -12.667 37.835 -22.168 55.502 -28.501s36.5 -9.5 56.5 -9.5c18 0 35.167 2.66699 51.5 8s34.5 14 54.5 26l64 -62c-26.667 -23.333 -53.834 -41.166 -81.501 -53.499s-56.5 -18.5 -86.5 -18.5c-62.667 0 -121.334 25.333 -176.001 76z
M-219.998 -62.001v-164h-192v164h192z" />
    <glyph glyph-name="igrave" unicode="&#xec;" horiz-adv-x="308" 
d="M246 604v-604h-192v604h192zM12 818h172l72 -160h-82z" />
    <glyph glyph-name="iacute" unicode="&#xed;" horiz-adv-x="308" 
d="M246 604v-604h-192v604h192zM288 818l-162 -160h-82l72 160h172z" />
    <glyph glyph-name="icircumflex" unicode="&#xee;" horiz-adv-x="666" 
d="M588 604l-288 -812h-206l94 260l-216 552h228l88 -286l88 286h212zM640 -62v-164h-192v164h192z" />
    <glyph glyph-name="idieresis" unicode="&#xef;" horiz-adv-x="14" 
d="M-220 -62v-164h-192v164h192z" />
    <glyph glyph-name="eth" unicode="&#xf0;" horiz-adv-x="308" 
d="M246 604v-604h-192v604h192zM312 818v-136h-134v136h134zM114 818v-136h-134v136h134z" />
    <glyph glyph-name="ntilde" unicode="&#xf1;" horiz-adv-x="666" 
d="M570 664v-663.999h-198c-96 0 -178.667 36.667 -248 110s-104 160.666 -104 261.999c0 68 17.667 121.667 53 161c42.667 47.333 109 71 199 71h106v60h-122l28 100h94v54h192v-54h58l-28 -100h-30zM378 442.001l-68 0.000976562c-26 0 -45.333 -3.33301 -58 -10
c-24 -12.667 -36 -37.334 -36 -74.001c0 -47.333 14.5 -90 43.5 -128s66.5 -60 112.5 -66h6v278z" />
    <glyph glyph-name="ograve" unicode="&#xf2;" horiz-adv-x="308" 
d="M246 604v-604h-192v604h192zM246 818v-164h-192v164h192zM246 -62v-164h-192v164h192z" />
    <glyph glyph-name="oacute" unicode="&#xf3;" horiz-adv-x="308" 
d="M246 604v-604h-192v604h192zM256 812l74 -65.999c-18 -28.667 -39 -49 -63 -61c-14.667 -7.33301 -29 -11 -43 -11c-14.667 0 -31.334 2.66699 -50.001 8c-46 13.333 -72.667 20 -80 20c-10 0 -19.5 -2.16699 -28.5 -6.5s-16.833 -11.5 -23.5 -21.5l-70 66
c16.667 26.667 35 46 55 58c15.333 9.33301 32.333 14 51 14c4.66699 0 11.834 -1.5 21.501 -4.5l30.5 -9.5c1.33301 -0.666992 13 -4.33398 35 -11.001c14.667 -4.66699 25.667 -7 33 -7c26.667 0 46 10.667 58 32z" />
    <glyph glyph-name="ocircumflex" unicode="&#xf4;" horiz-adv-x="640" 
d="M522 572c9.33301 10.667 18.001 25.168 26.001 43.501s12 32.5 12 42.5c0 30.667 21.333 46 64 46s64 -16 64 -48c0 -34.667 -10.667 -64.667 -32 -90s-51.333 -40 -90 -44c10.667 -17.333 19 -37.833 25 -61.5s9 -47.167 9 -70.5c0 -103.333 -25.333 -195 -76 -275
c-56 -88.667 -127.333 -133 -214 -133c-84.667 0 -155 44 -211 132c-51.333 81.333 -77 173.333 -77 276c-4 67.333 15.667 122.166 59 164.499s105.666 63.5 186.999 63.5h84c36.667 0 69.167 -4.16699 97.5 -12.5s52.5 -19.5 72.5 -33.5zM310.001 156.001
c20 0 40 20.001 60 60.001c22.667 45.333 34 97.333 34 156c0 29.333 -8 50.666 -24 63.999s-39.333 20 -70 20s-53.667 -6.5 -69 -19.5s-23 -34.5 -23 -64.5c0 -58 11 -109.667 33 -155c20 -40.667 39.667 -61 59 -61z" />
    <glyph glyph-name="otilde" unicode="&#xf5;" horiz-adv-x="14" 
d="M-224 812l74 -66c-18 -28.667 -39 -49 -63 -61c-14.667 -7.33301 -29 -11 -43 -11c-14.667 0 -31 2.66699 -49 8c-45.333 13.333 -71.666 20 -78.999 20c-10 0 -19.833 -2.33301 -29.5 -7s-17.834 -11.667 -24.501 -21l-70 66c16.667 26.667 35 46 55 58
c15.333 9.33301 32.333 14 51 14c4.66699 0 9.66699 -0.666992 15 -2c16 -6 26.5 -9.66699 31.5 -11s18.5 -5.33301 40.5 -12c14.667 -4.66699 25.667 -7 33 -7c26.667 0 46 10.667 58 32z" />
    <glyph glyph-name="odieresis" unicode="&#xf6;" horiz-adv-x="666" 
d="M570 550v-550.002h-306c-87.333 0 -151 25 -191 75c-34 42 -51 101 -51 177c0 38.667 6.66699 83.334 20 134.001c16.667 62.667 44 135.334 82 218.001h198c-33.333 -86.667 -54 -142.334 -62 -167.001c-24 -72.667 -36 -129.667 -36 -171c0 -44.667 12.333 -74 37 -88
c16.667 -9.33301 49 -14 97 -14h20v440h164c10 12 18.833 26.333 26.5 43s11.5 30.334 11.5 41.001c0 30.667 21.333 46 64 46s64 -16 64 -48c0 -36.667 -12.5 -68.5 -37.5 -95.5s-58.5 -40.5 -100.5 -40.5z" />
    <glyph glyph-name="oslash" unicode="&#xf8;" horiz-adv-x="14" 
d="M-438 818h172l72 -160h-82z" />
    <glyph glyph-name="ugrave" unicode="&#xf9;" horiz-adv-x="14" 
d="M-162 818l-162 -160h-82l72 160h172z" />
    <glyph glyph-name="uacute" unicode="&#xfa;" horiz-adv-x="14" 
d="M-428 796c19.333 -12.667 37.835 -22.168 55.502 -28.501s36.5 -9.5 56.5 -9.5c18 0 35.167 2.66699 51.5 8s34.5 14 54.5 26l64 -62c-26.667 -23.333 -53.834 -41.166 -81.501 -53.499s-56.5 -18.5 -86.5 -18.5c-62.667 0 -121.334 25.333 -176.001 76zM-329.998 1012
c-11.333 0 -20.834 -1.50098 -28.501 -4.50098s-11.5 -8.16699 -11.5 -15.5h-102c0 26.667 9.33301 49 28 67s46 27 82 27h64c36 0 63.667 -8.66699 83 -26s29 -38.666 29 -63.999s-11 -50.333 -33 -75l-73 -69v-30h-70v64c0 8.66699 5.33301 18.667 16 30s22.667 22 36 32
c16 12.667 24 22.667 24 30l-2 14c0 7.33301 -4.16699 12.5 -12.5 15.5s-18.166 4.5 -29.499 4.5z" />
    <glyph glyph-name="ucircumflex" unicode="&#xfb;" horiz-adv-x="14" 
d="M-330 862c-11.333 0 -20.834 -1.50098 -28.501 -4.50098s-11.5 -8.16699 -11.5 -15.5h-102c0 26.667 9.33301 49 28 67s46 27 82 27h64c36 0 63.667 -8.66699 83 -26s29 -38.666 29 -63.999s-11 -50.333 -33 -75l-73 -69v-30h-70v64c0 8.66699 5.33301 18.667 16 30
s22.667 22 36 32c16 12.667 24 22.667 24 30l-2 14c0 7.33301 -4.16699 12.5 -12.5 15.5s-18.166 4.5 -29.499 4.5z" />
    <glyph glyph-name="udieresis" unicode="&#xfc;" horiz-adv-x="14" 
d="M-84 992l74 -66c-18 -28.667 -39 -49 -63 -61c-14.667 -7.33301 -29 -11 -43 -11c-14.667 0 -31 2.66699 -49 8c-45.333 13.333 -71.666 20 -78.999 20c-10 0 -19.833 -2.33301 -29.5 -7s-17.834 -11.667 -24.501 -21l-70 66c16.667 26.667 35 46 55 58
c15.333 9.33301 32.333 14 51 14c4.66699 0 9.66699 -0.666992 15 -2c16 -6 26.5 -9.66699 31.5 -11s18.5 -5.33301 40.5 -12c14.667 -4.66699 25.667 -7 33 -7c26.667 0 46 10.667 58 32zM-398 796c19.333 -12.667 37.835 -22.168 55.502 -28.501s36.5 -9.5 56.5 -9.5
c18 0 35.167 2.66699 51.5 8s34.5 14 54.5 26l64 -62c-26.667 -23.333 -53.834 -41.166 -81.501 -53.499s-56.5 -18.5 -86.5 -18.5c-62.667 0 -121.334 25.333 -176.001 76z" />
    <glyph glyph-name="yacute" unicode="&#xfd;" horiz-adv-x="308" 
d="M246 604v-604h-192v604h192zM226 826l96 -154h-136l-38 60l-36 -60h-132l94 154h152z" />
    <glyph glyph-name="thorn" unicode="&#xfe;" horiz-adv-x="666" 
d="M56 818h192.001v-214h100c90 0 156.333 -23.667 199 -71c35.333 -39.333 53 -93 53 -161c0 -90.667 -28.667 -170 -86 -238c-62.667 -74.667 -151.334 -124 -266.001 -148v-196h-192v1028zM248.001 442l0.000976562 -278.001c45.333 6 82.666 28 111.999 66
s44 80.667 44 128c0 28.667 -7.16699 49.834 -21.5 63.501s-38.5 20.5 -72.5 20.5h-62z" />
    <glyph glyph-name="ydieresis" unicode="&#xff;" horiz-adv-x="666" 
d="M588 604l-288 -812h-206l94 260l-216 552h228l88 -286l88 286h212zM640 -62v-164h-192v164h192z" />
    <glyph glyph-name="OE" unicode="&#x152;" horiz-adv-x="14" 
d="M-400 1052c-11.333 0 -20.834 -1.50098 -28.501 -4.50098s-11.5 -8.16699 -11.5 -15.5h-102c0 26.667 9.33301 49 28 67s46 27 82 27h64c36 0 63.667 -8.66699 83 -26s29 -38.666 29 -63.999s-11 -50.333 -33 -75l-73 -69v-30h-70v64c0 8.66699 5.33301 18.667 16 30
s22.667 22 36 32c16 12.667 24 22.667 24 30l-2 14c0 7.33301 -4.16699 12.5 -12.5 15.5s-18.166 4.5 -29.499 4.5z" />
    <glyph glyph-name="oe" unicode="&#x153;" horiz-adv-x="14" 
d="M-330 862c-11.333 0 -20.834 -1.50098 -28.501 -4.50098s-11.5 -8.16699 -11.5 -15.5h-102c0 26.667 9.33301 49 28 67s46 27 82 27h64c36 0 63.667 -8.66699 83 -26s29 -38.666 29 -63.999s-11 -50.333 -33 -75l-73 -69v-30h-70v64c0 8.66699 5.33301 18.667 16 30
s22.667 22 36 32c16 12.667 24 22.667 24 30l-2 14c0 7.33301 -4.16699 12.5 -12.5 15.5s-18.166 4.5 -29.499 4.5z" />
    <glyph glyph-name="Scaron" unicode="&#x160;" horiz-adv-x="12" 
d="M-234 1042v-134h-134v134h134zM-432 1042v-134h-134v134h134z" />
    <glyph glyph-name="scaron" unicode="&#x161;" horiz-adv-x="12" 
d="M-168 830v-136h-134v136h134zM-366 830v-136h-134v136h134z" />
    <glyph glyph-name="Ydieresis" unicode="&#x178;" horiz-adv-x="704" 
d="M658 818l-240 -492v-210c0 -30 0.5 -52.333 1.5 -67s4.5 -31 10.5 -49l-194 -124c-12.667 24.667 -21.167 52 -25.5 82s-6.5 62.667 -6.5 98v270l-242 492h244l104 -244l104 244h244zM430 -162v-164h-192v164h192z" />
    <glyph glyph-name="florin" unicode="&#x192;" 
 />
    <glyph glyph-name="circumflex" unicode="&#x2c6;" 
 />
    <glyph glyph-name="tilde" unicode="&#x2dc;" 
 />
    <glyph glyph-name="endash" unicode="&#x2013;" horiz-adv-x="512" 
d="M500 430v-158h-500v158h500z" />
    <glyph glyph-name="emdash" unicode="&#x2014;" horiz-adv-x="1010" 
d="M1000 430v-158h-1000v158h1000z" />
    <glyph glyph-name="quoteleft" unicode="&#x2018;" horiz-adv-x="346" 
d="M134 540l-82 278h186l82 -278h-186z" />
    <glyph glyph-name="quoteright" unicode="&#x2019;" horiz-adv-x="346" 
d="M300 818l-82 -278h-188l82 278h188z" />
    <glyph glyph-name="quotesinglbase" unicode="&#x201a;" 
 />
    <glyph glyph-name="quotedblleft" unicode="&#x201c;" horiz-adv-x="666" 
d="M408 540l-82 278h188l82 -278h-188zM148 540l-82 278h186l82 -278h-186z" />
    <glyph glyph-name="quotedblright" unicode="&#x201d;" horiz-adv-x="666" 
d="M334 818l-82 -278h-186l82 278h186zM596 818l-82 -278h-188l82 278h188z" />
    <glyph glyph-name="quotedblbase" unicode="&#x201e;" 
 />
    <glyph glyph-name="dagger" unicode="&#x2020;" 
 />
    <glyph glyph-name="daggerdbl" unicode="&#x2021;" 
 />
    <glyph glyph-name="bullet" unicode="&#x2022;" 
 />
    <glyph glyph-name="ellipsis" unicode="&#x2026;" 
 />
    <glyph glyph-name="perthousand" unicode="&#x2030;" 
 />
    <glyph glyph-name="guilsinglleft" unicode="&#x2039;" 
 />
    <glyph glyph-name="guilsinglright" unicode="&#x203a;" 
 />
    <glyph glyph-name="trademark" unicode="&#x2122;" horiz-adv-x="652" 
d="M444 604v-398h-408v398h408z" />
    <glyph glyph-name=".null" horiz-adv-x="0" 
 />
    <glyph glyph-name="nonmarkingreturn" 
 />
  </font>
</defs>
</svg>
